<?xml version="1.0" encoding="UTF-8" standalone="no"?><!-- Generator: Gravit.io --><svg xmlns="http://www.w3.org/2000/svg" xmlns:xlink="http://www.w3.org/1999/xlink" style="isolation:isolate" viewBox="0 0 512 512" width="512pt" height="512pt"><defs><clipPath id="_clipPath_HGKLOgiHKLm7I2MIKSKO4AvSOnhUNqnb"><rect width="512" height="512"/></clipPath></defs><g clip-path="url(#_clipPath_HGKLOgiHKLm7I2MIKSKO4AvSOnhUNqnb)"><path d=" M 432.102 485.516 L 79 485.516 L 79 0 L 352.656 0 L 432.102 79.449 L 432.102 485.516 Z " fill="rgb(227,228,216)"/><path d=" M 352.656 0 L 352.656 79.449 L 432.102 79.449 L 352.656 0 Z " fill="rgb(208,206,189)"/><path d=" M 79 353.102 L 432.102 353.102 L 432.102 512 L 79 512 L 79 353.102 Z " fill="rgb(130,194,136)"/><path d=" M 242.035 485.516 L 189.07 485.516 C 184.195 485.516 180.242 481.563 180.242 476.691 C 180.242 471.816 184.195 467.863 189.07 467.863 L 242.035 467.863 C 246.906 467.863 250.863 471.816 250.863 476.691 C 250.863 481.563 246.906 485.516 242.035 485.516 Z " fill="rgb(255,255,255)"/><path d=" M 189.07 485.516 C 184.195 485.516 180.242 481.563 180.242 476.691 L 180.242 388.414 C 180.242 383.539 184.195 379.586 189.07 379.586 C 193.941 379.586 197.898 383.539 197.898 388.414 L 197.898 476.691 C 197.898 481.563 193.941 485.516 189.07 485.516 Z " fill="rgb(255,255,255)"/><g><path d=" M 202.586 167.723 L 131.965 167.723 C 127.094 167.723 123.137 163.77 123.137 158.898 L 123.137 123.586 C 123.137 118.715 127.094 114.758 131.965 114.758 L 202.586 114.758 C 207.461 114.758 211.414 118.715 211.414 123.586 L 211.414 158.898 C 211.414 163.77 207.461 167.723 202.586 167.723 Z  M 140.793 150.07 L 193.758 150.07 L 193.758 132.414 L 140.793 132.414 L 140.793 150.07 Z " fill="rgb(160,152,147)"/><path d=" M 202.586 203.035 L 131.965 203.035 C 127.094 203.035 123.137 199.078 123.137 194.207 L 123.137 158.898 C 123.137 154.023 127.094 150.07 131.965 150.07 L 202.586 150.07 C 207.461 150.07 211.414 154.023 211.414 158.898 L 211.414 194.207 C 211.414 199.078 207.461 203.035 202.586 203.035 Z  M 140.793 185.379 L 193.758 185.379 L 193.758 167.723 L 140.793 167.723 L 140.793 185.379 Z " fill="rgb(160,152,147)"/><path d=" M 379.137 203.035 L 202.586 203.035 C 197.715 203.035 193.758 199.078 193.758 194.207 L 193.758 158.898 C 193.758 154.023 197.715 150.07 202.586 150.07 L 379.137 150.07 C 384.012 150.07 387.965 154.023 387.965 158.898 L 387.965 194.207 C 387.965 199.078 384.012 203.035 379.137 203.035 Z  M 211.414 185.379 L 370.309 185.379 L 370.309 167.723 L 211.414 167.723 L 211.414 185.379 Z " fill="rgb(160,152,147)"/><path d=" M 202.586 238.344 L 131.965 238.344 C 127.094 238.344 123.137 234.391 123.137 229.516 L 123.137 194.207 C 123.137 189.336 127.094 185.379 131.965 185.379 L 202.586 185.379 C 207.461 185.379 211.414 189.336 211.414 194.207 L 211.414 229.516 C 211.414 234.391 207.461 238.344 202.586 238.344 Z  M 140.793 220.691 L 193.758 220.691 L 193.758 203.035 L 140.793 203.035 L 140.793 220.691 Z " fill="rgb(160,152,147)"/><path d=" M 379.137 238.344 L 202.586 238.344 C 197.715 238.344 193.758 234.391 193.758 229.516 L 193.758 194.207 C 193.758 189.336 197.715 185.379 202.586 185.379 L 379.137 185.379 C 384.012 185.379 387.965 189.336 387.965 194.207 L 387.965 229.516 C 387.965 234.391 384.012 238.344 379.137 238.344 Z  M 211.414 220.691 L 370.309 220.691 L 370.309 203.035 L 211.414 203.035 L 211.414 220.691 Z " fill="rgb(160,152,147)"/><path d=" M 202.586 273.656 L 131.965 273.656 C 127.094 273.656 123.137 269.699 123.137 264.828 L 123.137 229.516 C 123.137 224.645 127.094 220.691 131.965 220.691 L 202.586 220.691 C 207.461 220.691 211.414 224.645 211.414 229.516 L 211.414 264.828 C 211.414 269.699 207.461 273.656 202.586 273.656 Z  M 140.793 256 L 193.758 256 L 193.758 238.344 L 140.793 238.344 L 140.793 256 Z " fill="rgb(160,152,147)"/><path d=" M 379.137 273.656 L 202.586 273.656 C 197.715 273.656 193.758 269.699 193.758 264.828 L 193.758 229.516 C 193.758 224.645 197.715 220.691 202.586 220.691 L 379.137 220.691 C 384.012 220.691 387.965 224.645 387.965 229.516 L 387.965 264.828 C 387.965 269.699 384.012 273.656 379.137 273.656 Z  M 211.414 256 L 370.309 256 L 370.309 238.344 L 211.414 238.344 L 211.414 256 Z " fill="rgb(160,152,147)"/><path d=" M 202.586 308.965 L 131.965 308.965 C 127.094 308.965 123.137 305.012 123.137 300.137 L 123.137 264.828 C 123.137 259.953 127.094 256 131.965 256 L 202.586 256 C 207.461 256 211.414 259.953 211.414 264.828 L 211.414 300.137 C 211.414 305.012 207.461 308.965 202.586 308.965 L 202.586 308.965 Z  M 140.793 291.309 L 193.758 291.309 L 193.758 273.656 L 140.793 273.656 L 140.793 291.309 Z " fill="rgb(160,152,147)"/><path d=" M 379.137 308.965 L 202.586 308.965 C 197.715 308.965 193.758 305.012 193.758 300.137 L 193.758 264.828 C 193.758 259.953 197.715 256 202.586 256 L 379.137 256 C 384.012 256 387.965 259.953 387.965 264.828 L 387.965 300.137 C 387.965 305.012 384.012 308.965 379.137 308.965 L 379.137 308.965 Z  M 211.414 291.309 L 370.309 291.309 L 370.309 273.656 L 211.414 273.656 L 211.414 291.309 Z " fill="rgb(160,152,147)"/></g><path d=" M 105.957 485.516 C 104.41 485.516 102.84 485.109 101.43 484.254 C 97.242 481.746 95.895 476.328 98.398 472.145 L 151.367 383.867 C 153.871 379.684 159.293 378.332 163.477 380.84 C 167.66 383.348 169.012 388.766 166.504 392.953 L 113.539 481.227 C 111.879 483.988 108.957 485.516 105.957 485.516 L 105.957 485.516 Z " fill="rgb(255,255,255)"/><path d=" M 350.957 485.516 C 349.41 485.516 347.84 485.109 346.43 484.254 C 342.242 481.746 340.895 476.328 343.398 472.145 L 396.367 383.867 C 398.871 379.684 404.293 378.332 408.477 380.84 C 412.66 383.348 414.012 388.766 411.504 392.953 L 358.539 481.227 C 356.879 483.988 353.957 485.516 350.957 485.516 L 350.957 485.516 Z " fill="rgb(255,255,255)"/><path d=" M 158.941 485.516 C 155.938 485.516 153.016 483.988 151.367 481.234 L 98.398 392.961 C 95.895 388.777 97.242 383.355 101.43 380.848 C 105.613 378.332 111.031 379.691 113.539 383.875 L 166.504 472.152 C 169.012 476.336 167.66 481.758 163.477 484.266 C 162.055 485.109 160.484 485.516 158.941 485.516 Z " fill="rgb(255,255,255)"/><path d=" M 403.941 485.516 C 400.938 485.516 398.016 483.988 396.367 481.234 L 343.398 392.961 C 340.895 388.777 342.242 383.355 346.43 380.848 C 350.613 378.332 356.031 379.691 358.539 383.875 L 411.504 472.152 C 414.012 476.336 412.66 481.758 408.477 484.266 C 407.055 485.109 405.484 485.516 403.941 485.516 Z " fill="rgb(255,255,255)"/><path d=" M 299.07 485.516 L 268.172 485.516 C 263.301 485.516 259.344 481.563 259.344 476.691 C 259.344 471.816 263.301 467.863 268.172 467.863 L 299.07 467.863 C 306.371 467.863 312.309 461.922 312.309 454.621 C 312.309 447.32 306.371 441.379 299.07 441.379 L 290.242 441.379 C 273.203 441.379 259.344 427.52 259.344 410.484 C 259.344 393.445 273.203 379.586 290.242 379.586 L 321.137 379.586 C 326.012 379.586 329.965 383.539 329.965 388.414 C 329.965 393.285 326.012 397.242 321.137 397.242 L 290.242 397.242 C 282.941 397.242 277 403.184 277 410.484 C 277 417.781 282.941 423.723 290.242 423.723 L 299.07 423.723 C 316.105 423.723 329.965 437.582 329.965 454.621 C 329.965 471.656 316.105 485.516 299.07 485.516 L 299.07 485.516 Z " fill="rgb(255,255,255)"/></g></svg>